Coordinates
version=1
nRows=11
nColumns=36
inDegrees=yes

Units are S.I. units (second, meters, Newtons, ...)
If the header above contains a line with 'inDegrees', this indicates whether rotational values are in degrees (yes) or radians (no).

endheader
time	pelvis_tilt	pelvis_list	pelvis_rotation	pelvis_tx	pelvis_ty	pelvis_tz	hip_flexion_r	hip_adduction_r	hip_rotation_r	knee_angle_r	knee_angle_r_beta	ankle_angle_r	subtalar_angle_r	mtp_angle_r	hip_flexion_l	hip_adduction_l	hip_rotation_l	knee_angle_l	knee_angle_l_beta	ankle_angle_l	subtalar_angle_l	mtp_angle_l	lumbar_extension	lumbar_bending	lumbar_rotation	arm_flex_r	arm_add_r	arm_rot_r	elbow_flex_r	pro_sup_r	arm_flex_l	arm_add_l	arm_rot_l	elbow_flex_l	pro_sup_l
     10.03000000	    -18.32822857	      0.45082975	      0.80938085	     -0.22871651	      0.87347806	     -0.55707435	     45.66590230	     -4.50651614	     -0.54766366	     45.81777412	      0.79967101	     20.10104766	    -13.13165665	     -7.49999987	     47.19569141	    -11.43427458	     -5.99189124	     44.83587645	      0.78253367	     13.71133679	     -4.23779359	     -7.49999987	     -6.48891415	      2.09065961	      3.74533398	     44.15359174	    -20.75890714	    -14.72217669	     36.48630242	    111.55273048	     61.19660190	    -17.70968794	     -2.34675713	     28.62511795	    109.62899999
     10.04000000	    -17.91224546	      0.47540802	      0.84429688	     -0.22336215	      0.87863923	     -0.55656447	     44.08348135	     -4.45177227	     -0.66116365	     44.41164253	      0.77512939	     19.82937504	    -12.85892003	     -7.49999987	     45.66800717	    -11.35117339	     -6.27238717	     43.56080149	      0.76027941	     13.54524882	     -4.09857479	     -7.49999987	     -5.48869683	      2.07891368	      3.60873511	     41.56627738	    -20.38632279	    -15.03298837	     35.73764154	    111.53968380	     58.82370041	    -17.93208867	     -2.47824765	     27.65805244	    109.55688850
     10.05000000	    -16.66519130	      0.48594281	      0.92147342	     -0.21783606	      0.88546163	     -0.55616709	     41.40507365	     -4.35365135	     -0.62546714	     42.68647384	      0.74501951	     19.20002189	    -12.50312746	     -7.49999987	     43.10685907	    -11.13486388	     -6.21609848	     41.99528010	      0.73295591	     12.87832561	     -3.95289283	     -7.49999987	     -5.65782558	      2.08506474	      3.47819029	     39.24182254	    -19.85640906	    -16.14990789	     35.26807019	    111.52319918	     56.86377241	    -18.02758873	     -2.69625545	     26.64016879	    109.48913969
     10.06000000	    -16.22509809	      0.54280536	      0.98592229	     -0.21246143	      0.89038246	     -0.55605967	     39.87125713	     -4.43459054	     -0.91162944	     41.42486809	      0.72300034	     19.00146125	    -12.38382423	     -7.49999987	     41.62141817	    -10.97718716	     -6.52493957	     40.83427791	      0.71269260	     12.70863891	     -3.95396716	     -7.49999987	     -4.70057029	      2.06567630	      3.32366521	     36.70275300	    -19.43747664	    -16.59975177	     34.61850448	    111.47955635	     54.43968822	    -18.10041139	     -2.79068786	     25.75599012	    109.42371495
     10.07000000	    -14.77755162	      0.60400297	      1.02598559	     -0.20671502	      0.89741009	     -0.55568258	     36.87324603	     -4.35542714	     -0.85151630	     39.47851299	      0.68903004	     18.33431527	    -12.31559284	     -7.49999987	     38.71316097	    -10.71977952	     -6.49739316	     39.04729153	      0.68150380	     11.83175174	     -4.08253651	     -7.49999987	     -5.19900512	      2.01550737	      3.27636491	     34.36929152	    -18.85225342	    -18.14060773	     34.59462828	    111.40565472	     52.47846968	    -18.20734466	     -2.94273340	     25.01767863	    109.35279213
     10.08000000	    -13.86529535	      0.68784680	      1.01141651	     -0.20114512	      0.90305171	     -0.55511917	     34.63146120	     -4.28118924	     -0.79811297	     37.82763330	      0.66021675	     17.84681849	    -12.37080721	     -7.49999987	     36.52627144	    -10.54906030	     -6.68719027	     37.55183026	      0.65540308	     11.22217406	     -4.15403140	     -7.49999987	     -4.96887382	      1.91806234	      3.32119992	     31.81181658	    -18.26285702	    -19.58488951	     34.66412288	    111.35159820	     50.39202254	    -18.17388823	     -3.18871376	     24.24316979	    109.26434257
     10.09000000	    -12.90241638	      0.75937830	      1.04783180	     -0.19564318	      0.90864466	     -0.55471290	     32.31422936	     -4.25279062	     -0.86802417	     36.14011555	      0.63076401	     17.29409785	    -12.49242205	     -7.49999987	     34.31580259	    -10.34066403	     -6.83351664	     36.05796607	      0.62933023	     10.60680424	     -4.26738102	     -7.49999987	     -4.87142243	      1.82462779	      3.37789020	     29.15238368	    -17.56448494	    -21.53038443	     35.14421089	    111.33074952	     48.41910622	    -18.01894709	     -3.64548273	     23.56220513	    109.16138504
     10.10000000	    -12.01368277	      0.83089346	      1.10234553	     -0.19024107	      0.91390584	     -0.55463076	     30.10040428	     -4.26854466	     -0.94347692	     34.47204355	      0.60165066	     16.78727637	    -12.50822992	     -7.49999987	     32.23539659	    -10.10311492	     -6.91043290	     34.64097646	      0.60459910	     10.05205338	     -4.23658603	     -7.49999987	     -4.67839925	      1.81574342	      3.31703079	     26.73197036	    -17.01489195	    -22.71402627	     35.37056280	    111.35341854	     46.20875291	    -17.93991583	     -3.98718983	     22.97569745	    109.07229788
     10.11000000	    -11.35224034	      0.87185741	      1.10917293	     -0.18515826	      0.91851250	     -0.55421326	     28.19472660	     -4.14706963	     -0.72806233	     32.86916468	      0.57367515	     16.33305489	    -12.40686731	     -7.49999987	     30.44320754	     -9.90596167	     -6.86797608	     33.25085534	      0.58033690	      9.59164517	     -4.08662664	     -7.49999987	     -4.23346154	      1.75828065	      3.22690689	     24.37724410	    -16.45741604	    -23.24769291	     35.27801139	    111.36650938	     44.05948876	    -17.95615016	     -4.18246539	     22.38140196	    108.98983830
     10.12000000	    -10.37966566	      0.88239970	      1.01334267	     -0.18001765	      0.92339795	     -0.55360543	     25.94942395	     -3.97230565	     -0.66173946	     31.19176993	      0.54439908	     15.23368847	    -13.17843612	     -7.49999987	     28.28903078	     -9.84053580	     -7.11627317	     31.85938284	      0.55605113	      8.83989604	     -4.40800334	     -7.49999987	     -4.25558906	      1.72605881	      3.52982696	     21.75167699	    -15.74236334	    -25.32655713	     36.21048003	    111.59144806	     42.15265066	    -17.63204935	     -4.78335830	     21.98880966	    108.80052469
     10.13000000	     -9.47197791	      0.88491357	      0.98387297	     -0.17496828	      0.92791456	     -0.55324272	     23.76133517	     -3.87295982	     -0.70499208	     29.52782753	      0.51535781	     14.76583909	    -12.90604430	     -7.49999987	     26.25479749	     -9.73658408	     -7.27108576	     30.51623184	      0.53260872	      8.38201729	     -4.32132056	     -7.49999987	     -4.16382418	      1.71571803	      3.58181890	     19.50220675	    -15.29361733	    -25.62648158	     36.07617878	    111.63693247	     40.21579560	    -17.51527306	     -4.87043394	     21.37718389	    108.74350586
